<mxfile host="app.diagrams.net" agent="Mozilla/5.0 (X11; Linux x86_64; rv:128.0) Gecko/20100101 Firefox/128.0" version="25.0.3">
  <diagram name="Page-1" id="HHO7tMF4Vck_DR756JE1">
    <mxGraphModel dx="989" dy="1252" grid="1" gridSize="10" guides="1" tooltips="1" connect="1" arrows="1" fold="1" page="1" pageScale="1" pageWidth="827" pageHeight="1169" math="0" shadow="0">
      <root>
        <mxCell id="0" />
        <mxCell id="1" parent="0" />
        <mxCell id="OHbJW_l4e2RDl2kT1JHy-1" value="" style="ellipse;whiteSpace=wrap;html=1;aspect=fixed;" vertex="1" parent="1">
          <mxGeometry x="520" y="480" width="80" height="80" as="geometry" />
        </mxCell>
        <mxCell id="OHbJW_l4e2RDl2kT1JHy-3" style="edgeStyle=orthogonalEdgeStyle;rounded=0;orthogonalLoop=1;jettySize=auto;html=1;entryX=0;entryY=0.5;entryDx=0;entryDy=0;curved=1;exitX=1;exitY=0.5;exitDx=0;exitDy=0;" edge="1" parent="1" source="OHbJW_l4e2RDl2kT1JHy-1" target="OHbJW_l4e2RDl2kT1JHy-1">
          <mxGeometry relative="1" as="geometry">
            <Array as="points">
              <mxPoint x="640" y="520" />
              <mxPoint x="640" y="420" />
              <mxPoint x="480" y="420" />
              <mxPoint x="480" y="520" />
            </Array>
          </mxGeometry>
        </mxCell>
        <mxCell id="OHbJW_l4e2RDl2kT1JHy-5" value="" style="endArrow=none;html=1;rounded=0;entryX=0.5;entryY=0;entryDx=0;entryDy=0;exitX=0.5;exitY=1;exitDx=0;exitDy=0;" edge="1" parent="1" source="OHbJW_l4e2RDl2kT1JHy-1" target="OHbJW_l4e2RDl2kT1JHy-1">
          <mxGeometry width="50" height="50" relative="1" as="geometry">
            <mxPoint x="390" y="950" as="sourcePoint" />
            <mxPoint x="440" y="900" as="targetPoint" />
          </mxGeometry>
        </mxCell>
        <mxCell id="OHbJW_l4e2RDl2kT1JHy-7" value="&lt;div align=&quot;center&quot;&gt;&lt;font style=&quot;font-size: 24px;&quot;&gt;Î£&lt;/font&gt;&lt;/div&gt;" style="text;html=1;align=center;verticalAlign=middle;whiteSpace=wrap;rounded=0;" vertex="1" parent="1">
          <mxGeometry x="520" y="480" width="40" height="80" as="geometry" />
        </mxCell>
        <mxCell id="OHbJW_l4e2RDl2kT1JHy-9" value="" style="curved=1;endArrow=none;html=1;rounded=0;endFill=0;" edge="1" parent="1">
          <mxGeometry width="50" height="50" relative="1" as="geometry">
            <mxPoint x="567" y="540" as="sourcePoint" />
            <mxPoint x="587" y="500" as="targetPoint" />
            <Array as="points">
              <mxPoint x="577" y="540" />
              <mxPoint x="577" y="500" />
            </Array>
          </mxGeometry>
        </mxCell>
      </root>
    </mxGraphModel>
  </diagram>
</mxfile>
